<mxfile host="app.diagrams.net" modified="2024-03-28T07:53:09.241Z" agent="Mozilla/5.0 (Windows NT 10.0; Win64; x64) AppleWebKit/537.36 (KHTML, like Gecko) Chrome/122.0.0.0 Safari/537.36 Edg/122.0.0.0" etag="YG30UkaoFxVzuZawOV63" version="24.2.0" type="device">
  <diagram name="Page-1" id="G-pyxurRo9HHik7D_Uui">
    <mxGraphModel dx="1386" dy="1885" grid="1" gridSize="10" guides="1" tooltips="1" connect="1" arrows="1" fold="1" page="1" pageScale="1" pageWidth="850" pageHeight="1100" math="0" shadow="0">
      <root>
        <mxCell id="0" />
        <mxCell id="1" parent="0" />
        <mxCell id="wsE8enRh8yIq8ZNak9wt-1" value="SWITCH" style="rounded=0;whiteSpace=wrap;html=1;" vertex="1" parent="1">
          <mxGeometry x="290" y="110" width="240" height="60" as="geometry" />
        </mxCell>
        <mxCell id="wsE8enRh8yIq8ZNak9wt-2" value="PC!" style="whiteSpace=wrap;html=1;aspect=fixed;" vertex="1" parent="1">
          <mxGeometry x="160" y="280" width="80" height="80" as="geometry" />
        </mxCell>
        <mxCell id="wsE8enRh8yIq8ZNak9wt-3" value="PC2" style="whiteSpace=wrap;html=1;aspect=fixed;" vertex="1" parent="1">
          <mxGeometry x="310" y="280" width="80" height="80" as="geometry" />
        </mxCell>
        <mxCell id="wsE8enRh8yIq8ZNak9wt-4" value="PC3" style="whiteSpace=wrap;html=1;aspect=fixed;" vertex="1" parent="1">
          <mxGeometry x="450" y="280" width="80" height="80" as="geometry" />
        </mxCell>
        <mxCell id="wsE8enRh8yIq8ZNak9wt-5" value="PC4" style="whiteSpace=wrap;html=1;aspect=fixed;" vertex="1" parent="1">
          <mxGeometry x="590" y="280" width="80" height="80" as="geometry" />
        </mxCell>
        <mxCell id="wsE8enRh8yIq8ZNak9wt-10" value="" style="endArrow=none;html=1;rounded=0;entryX=0.5;entryY=1;entryDx=0;entryDy=0;exitX=0.5;exitY=0;exitDx=0;exitDy=0;" edge="1" parent="1" source="wsE8enRh8yIq8ZNak9wt-3" target="wsE8enRh8yIq8ZNak9wt-1">
          <mxGeometry width="50" height="50" relative="1" as="geometry">
            <mxPoint x="400" y="430" as="sourcePoint" />
            <mxPoint x="450" y="380" as="targetPoint" />
          </mxGeometry>
        </mxCell>
        <mxCell id="wsE8enRh8yIq8ZNak9wt-11" value="" style="endArrow=none;html=1;rounded=0;entryX=0.5;entryY=1;entryDx=0;entryDy=0;exitX=0.5;exitY=0;exitDx=0;exitDy=0;" edge="1" parent="1" source="wsE8enRh8yIq8ZNak9wt-4" target="wsE8enRh8yIq8ZNak9wt-1">
          <mxGeometry width="50" height="50" relative="1" as="geometry">
            <mxPoint x="400" y="430" as="sourcePoint" />
            <mxPoint x="450" y="380" as="targetPoint" />
          </mxGeometry>
        </mxCell>
        <mxCell id="wsE8enRh8yIq8ZNak9wt-12" value="" style="endArrow=none;html=1;rounded=0;exitX=0.5;exitY=0;exitDx=0;exitDy=0;" edge="1" parent="1" source="wsE8enRh8yIq8ZNak9wt-2">
          <mxGeometry width="50" height="50" relative="1" as="geometry">
            <mxPoint x="400" y="430" as="sourcePoint" />
            <mxPoint x="410" y="170" as="targetPoint" />
          </mxGeometry>
        </mxCell>
        <mxCell id="wsE8enRh8yIq8ZNak9wt-13" value="" style="endArrow=none;html=1;rounded=0;entryX=0.5;entryY=1;entryDx=0;entryDy=0;exitX=0.5;exitY=0;exitDx=0;exitDy=0;" edge="1" parent="1" source="wsE8enRh8yIq8ZNak9wt-5" target="wsE8enRh8yIq8ZNak9wt-1">
          <mxGeometry width="50" height="50" relative="1" as="geometry">
            <mxPoint x="400" y="430" as="sourcePoint" />
            <mxPoint x="450" y="380" as="targetPoint" />
          </mxGeometry>
        </mxCell>
        <mxCell id="wsE8enRh8yIq8ZNak9wt-16" value="PC2" style="whiteSpace=wrap;html=1;aspect=fixed;" vertex="1" parent="1">
          <mxGeometry x="160" y="-600" width="80" height="80" as="geometry" />
        </mxCell>
        <mxCell id="wsE8enRh8yIq8ZNak9wt-17" value="PC1" style="whiteSpace=wrap;html=1;aspect=fixed;" vertex="1" parent="1">
          <mxGeometry x="40" y="-600" width="80" height="80" as="geometry" />
        </mxCell>
        <mxCell id="wsE8enRh8yIq8ZNak9wt-18" value="PC3" style="whiteSpace=wrap;html=1;aspect=fixed;" vertex="1" parent="1">
          <mxGeometry x="280" y="-600" width="80" height="80" as="geometry" />
        </mxCell>
        <mxCell id="wsE8enRh8yIq8ZNak9wt-19" value="PC1" style="whiteSpace=wrap;html=1;aspect=fixed;" vertex="1" parent="1">
          <mxGeometry x="590" y="-600" width="80" height="80" as="geometry" />
        </mxCell>
        <mxCell id="wsE8enRh8yIq8ZNak9wt-20" value="PC2" style="whiteSpace=wrap;html=1;aspect=fixed;" vertex="1" parent="1">
          <mxGeometry x="720" y="-600" width="80" height="80" as="geometry" />
        </mxCell>
        <mxCell id="wsE8enRh8yIq8ZNak9wt-21" value="SWITCH" style="rounded=0;whiteSpace=wrap;html=1;" vertex="1" parent="1">
          <mxGeometry x="100" y="-440" width="210" height="80" as="geometry" />
        </mxCell>
        <mxCell id="wsE8enRh8yIq8ZNak9wt-22" value="SWITCH" style="rounded=0;whiteSpace=wrap;html=1;" vertex="1" parent="1">
          <mxGeometry x="630" y="-440" width="120" height="80" as="geometry" />
        </mxCell>
        <mxCell id="wsE8enRh8yIq8ZNak9wt-23" value="" style="endArrow=none;html=1;rounded=0;entryX=0.5;entryY=1;entryDx=0;entryDy=0;exitX=0.5;exitY=1;exitDx=0;exitDy=0;" edge="1" parent="1" source="wsE8enRh8yIq8ZNak9wt-18" target="wsE8enRh8yIq8ZNak9wt-16">
          <mxGeometry width="50" height="50" relative="1" as="geometry">
            <mxPoint x="400" y="-350" as="sourcePoint" />
            <mxPoint x="450" y="-400" as="targetPoint" />
            <Array as="points">
              <mxPoint x="200" y="-440" />
            </Array>
          </mxGeometry>
        </mxCell>
        <mxCell id="wsE8enRh8yIq8ZNak9wt-26" value="" style="endArrow=none;html=1;rounded=0;entryX=0.5;entryY=1;entryDx=0;entryDy=0;" edge="1" parent="1" target="wsE8enRh8yIq8ZNak9wt-17">
          <mxGeometry width="50" height="50" relative="1" as="geometry">
            <mxPoint x="200" y="-440" as="sourcePoint" />
            <mxPoint x="450" y="-400" as="targetPoint" />
          </mxGeometry>
        </mxCell>
        <mxCell id="wsE8enRh8yIq8ZNak9wt-27" value="" style="endArrow=none;html=1;rounded=0;entryX=0.5;entryY=0;entryDx=0;entryDy=0;exitX=0.25;exitY=1;exitDx=0;exitDy=0;" edge="1" parent="1" source="wsE8enRh8yIq8ZNak9wt-19" target="wsE8enRh8yIq8ZNak9wt-22">
          <mxGeometry width="50" height="50" relative="1" as="geometry">
            <mxPoint x="400" y="-350" as="sourcePoint" />
            <mxPoint x="450" y="-400" as="targetPoint" />
          </mxGeometry>
        </mxCell>
        <mxCell id="wsE8enRh8yIq8ZNak9wt-28" value="" style="endArrow=none;html=1;rounded=0;entryX=0.5;entryY=0;entryDx=0;entryDy=0;exitX=0.5;exitY=1;exitDx=0;exitDy=0;" edge="1" parent="1" source="wsE8enRh8yIq8ZNak9wt-20" target="wsE8enRh8yIq8ZNak9wt-22">
          <mxGeometry width="50" height="50" relative="1" as="geometry">
            <mxPoint x="400" y="-350" as="sourcePoint" />
            <mxPoint x="450" y="-400" as="targetPoint" />
          </mxGeometry>
        </mxCell>
        <mxCell id="wsE8enRh8yIq8ZNak9wt-29" value="R1" style="ellipse;whiteSpace=wrap;html=1;aspect=fixed;" vertex="1" parent="1">
          <mxGeometry x="350" y="-440" width="80" height="80" as="geometry" />
        </mxCell>
        <mxCell id="wsE8enRh8yIq8ZNak9wt-30" value="R2" style="ellipse;whiteSpace=wrap;html=1;aspect=fixed;" vertex="1" parent="1">
          <mxGeometry x="500" y="-440" width="80" height="80" as="geometry" />
        </mxCell>
        <mxCell id="wsE8enRh8yIq8ZNak9wt-32" value="" style="endArrow=none;html=1;rounded=0;entryX=0;entryY=0.5;entryDx=0;entryDy=0;exitX=1;exitY=0.5;exitDx=0;exitDy=0;" edge="1" parent="1" source="wsE8enRh8yIq8ZNak9wt-29" target="wsE8enRh8yIq8ZNak9wt-30">
          <mxGeometry width="50" height="50" relative="1" as="geometry">
            <mxPoint x="400" y="-350" as="sourcePoint" />
            <mxPoint x="450" y="-400" as="targetPoint" />
          </mxGeometry>
        </mxCell>
        <mxCell id="wsE8enRh8yIq8ZNak9wt-33" value="" style="endArrow=none;html=1;rounded=0;" edge="1" parent="1" source="wsE8enRh8yIq8ZNak9wt-21" target="wsE8enRh8yIq8ZNak9wt-29">
          <mxGeometry width="50" height="50" relative="1" as="geometry">
            <mxPoint x="400" y="-350" as="sourcePoint" />
            <mxPoint x="450" y="-400" as="targetPoint" />
          </mxGeometry>
        </mxCell>
        <mxCell id="wsE8enRh8yIq8ZNak9wt-34" value="" style="endArrow=none;html=1;rounded=0;entryX=1;entryY=0.5;entryDx=0;entryDy=0;exitX=0;exitY=0.5;exitDx=0;exitDy=0;" edge="1" parent="1" source="wsE8enRh8yIq8ZNak9wt-22" target="wsE8enRh8yIq8ZNak9wt-30">
          <mxGeometry width="50" height="50" relative="1" as="geometry">
            <mxPoint x="400" y="-350" as="sourcePoint" />
            <mxPoint x="450" y="-400" as="targetPoint" />
          </mxGeometry>
        </mxCell>
        <mxCell id="wsE8enRh8yIq8ZNak9wt-35" value="11.95.0.7/24" style="text;html=1;align=center;verticalAlign=middle;resizable=0;points=[];autosize=1;strokeColor=none;fillColor=none;" vertex="1" parent="1">
          <mxGeometry x="25" y="-632" width="90" height="30" as="geometry" />
        </mxCell>
        <mxCell id="wsE8enRh8yIq8ZNak9wt-38" value="11.95.0.9/24" style="text;html=1;align=center;verticalAlign=middle;resizable=0;points=[];autosize=1;strokeColor=none;fillColor=none;" vertex="1" parent="1">
          <mxGeometry x="160" y="-632" width="90" height="30" as="geometry" />
        </mxCell>
        <mxCell id="wsE8enRh8yIq8ZNak9wt-39" value="11.95.0.10/24" style="text;html=1;align=center;verticalAlign=middle;resizable=0;points=[];autosize=1;strokeColor=none;fillColor=none;" vertex="1" parent="1">
          <mxGeometry x="270" y="-632" width="100" height="30" as="geometry" />
        </mxCell>
        <mxCell id="wsE8enRh8yIq8ZNak9wt-40" value="87.91.0.6/24" style="text;html=1;align=center;verticalAlign=middle;resizable=0;points=[];autosize=1;strokeColor=none;fillColor=none;" vertex="1" parent="1">
          <mxGeometry x="590" y="-632" width="90" height="30" as="geometry" />
        </mxCell>
        <mxCell id="wsE8enRh8yIq8ZNak9wt-41" value="87.91.0.11/24" style="text;html=1;align=center;verticalAlign=middle;resizable=0;points=[];autosize=1;strokeColor=none;fillColor=none;" vertex="1" parent="1">
          <mxGeometry x="700" y="-632" width="100" height="30" as="geometry" />
        </mxCell>
        <mxCell id="wsE8enRh8yIq8ZNak9wt-42" value="88.66.0.1/24" style="text;html=1;align=center;verticalAlign=middle;resizable=0;points=[];autosize=1;strokeColor=none;fillColor=none;" vertex="1" parent="1">
          <mxGeometry x="345" y="-472" width="90" height="30" as="geometry" />
        </mxCell>
        <mxCell id="wsE8enRh8yIq8ZNak9wt-43" value="88.66.0.4/24" style="text;html=1;align=center;verticalAlign=middle;resizable=0;points=[];autosize=1;strokeColor=none;fillColor=none;" vertex="1" parent="1">
          <mxGeometry x="495" y="-472" width="90" height="30" as="geometry" />
        </mxCell>
      </root>
    </mxGraphModel>
  </diagram>
</mxfile>
